<?xml version="1.0" encoding="UTF-8" standalone="no"?>
<!DOCTYPE svg PUBLIC "-//W3C//DTD SVG 20010904//EN"
              "http://www.w3.org/TR/2001/REC-SVG-20010904/DTD/svg10.dtd">

<svg xmlns="http://www.w3.org/2000/svg"
     width="4.53in" height="4in"
     viewBox="0 0 1359 1200">
  <path id="Selection #1"
        fill="royalblue" stroke="black" stroke-width="1"
        d="M 621.00,54.00
           C 624.92,56.63 628.94,68.23 631.00,73.00
             631.00,73.00 650.86,118.00 650.86,118.00
             650.86,118.00 706.86,245.00 706.86,245.00
             706.86,245.00 722.30,280.00 722.30,280.00
             725.00,285.98 730.90,298.12 732.00,304.00
             732.00,304.00 884.00,206.31 884.00,206.31
             884.00,206.31 930.00,176.67 930.00,176.67
             936.20,172.56 950.54,162.58 957.00,161.00
             957.00,161.00 948.87,195.00 948.87,195.00
             948.87,195.00 938.37,238.00 938.37,238.00
             938.37,238.00 912.13,346.00 912.13,346.00
             912.13,346.00 894.00,422.00 894.00,422.00
             894.00,422.00 978.00,424.00 978.00,424.00
             978.00,424.00 993.00,425.00 993.00,425.00
             993.00,425.00 1010.00,425.00 1010.00,425.00
             1010.00,425.00 1026.00,426.00 1026.00,426.00
             1026.00,426.00 1042.00,426.00 1042.00,426.00
             1042.00,426.00 1058.00,427.00 1058.00,427.00
             1058.00,427.00 1073.00,427.00 1073.00,427.00
             1073.00,427.00 1088.00,428.00 1088.00,428.00
             1088.00,428.00 1106.00,428.00 1106.00,428.00
             1106.00,428.00 1120.00,429.00 1120.00,429.00
             1120.00,429.00 1137.00,429.00 1137.00,429.00
             1137.00,429.00 1153.00,430.00 1153.00,430.00
             1153.00,430.00 1180.00,431.00 1180.00,431.00
             1177.27,436.02 1163.96,447.12 1159.00,451.42
             1159.00,451.42 1119.00,487.08 1119.00,487.08
             1119.00,487.08 1011.00,583.83 1011.00,583.83
             1011.00,583.83 962.00,628.00 962.00,628.00
             962.00,628.00 1007.00,664.39 1007.00,664.39
             1007.00,664.39 1109.00,747.80 1109.00,747.80
             1109.00,747.80 1151.00,782.20 1151.00,782.20
             1156.64,786.75 1166.98,793.75 1170.00,800.00
             1170.00,800.00 1145.00,802.00 1145.00,802.00
             1145.00,802.00 1136.00,802.00 1136.00,802.00
             1136.00,802.00 1104.00,804.91 1104.00,804.91
             1104.00,804.91 1012.00,812.00 1012.00,812.00
             1012.00,812.00 1003.00,812.00 1003.00,812.00
             1003.00,812.00 945.00,816.83 945.00,816.83
             945.00,816.83 920.00,819.00 920.00,819.00
             920.00,819.00 971.42,996.00 971.42,996.00
             971.42,996.00 995.00,1078.00 995.00,1078.00
             987.69,1076.61 975.01,1067.88 968.00,1063.85
             968.00,1063.85 914.00,1032.42 914.00,1032.42
             914.00,1032.42 810.00,971.85 810.00,971.85
             810.00,971.85 768.00,947.42 768.00,947.42
             768.00,947.42 735.00,928.00 735.00,928.00
             735.00,928.00 724.42,957.00 724.42,957.00
             724.42,957.00 702.20,1014.00 702.20,1014.00
             702.20,1014.00 653.58,1139.00 653.58,1139.00
             653.58,1139.00 630.00,1200.00 630.00,1200.00
             630.00,1200.00 628.00,1200.00 628.00,1200.00
             628.00,1200.00 604.01,1141.00 604.01,1141.00
             604.01,1141.00 558.99,1031.00 558.99,1031.00
             558.99,1031.00 542.15,990.00 542.15,990.00
             542.15,990.00 531.00,961.00 531.00,961.00
             531.00,961.00 489.00,989.33 489.00,989.33
             489.00,989.33 380.00,1063.33 380.00,1063.33
             380.00,1063.33 344.00,1087.72 344.00,1087.72
             337.79,1092.06 327.91,1099.80 321.00,1102.00
             321.00,1102.00 335.58,1035.00 335.58,1035.00
             335.58,1035.00 361.42,915.00 361.42,915.00
             361.42,915.00 374.60,854.00 374.60,854.00
             374.60,854.00 380.00,825.96 380.00,825.96
             380.00,825.96 366.00,825.96 366.00,825.96
             366.00,825.96 353.00,825.00 353.00,825.00
             353.00,825.00 338.00,824.00 338.00,824.00
             338.00,824.00 321.00,823.00 321.00,823.00
             321.00,823.00 300.00,822.00 300.00,822.00
             300.00,822.00 287.00,821.00 287.00,821.00
             287.00,821.00 268.00,820.00 268.00,820.00
             268.00,820.00 248.00,819.00 248.00,819.00
             248.00,819.00 230.00,818.00 230.00,818.00
             230.00,818.00 216.00,817.00 216.00,817.00
             216.00,817.00 178.00,815.00 178.00,815.00
             178.00,815.00 164.00,814.00 164.00,814.00
             164.00,814.00 126.00,812.00 126.00,812.00
             126.00,812.00 113.00,811.00 113.00,811.00
             113.00,811.00 81.00,809.00 81.00,809.00
             83.87,803.73 94.96,795.46 100.00,791.25
             100.00,791.25 138.00,759.00 138.00,759.00
             138.00,759.00 245.00,668.25 245.00,668.25
             245.00,668.25 277.00,641.08 277.00,641.08
             282.16,636.76 287.99,630.79 294.00,628.00
             294.00,628.00 267.00,606.58 267.00,606.58
             267.00,606.58 209.00,561.58 209.00,561.58
             209.00,561.58 133.00,502.58 133.00,502.58
             133.00,502.58 92.00,471.00 92.00,471.00
             92.00,471.00 92.00,469.00 92.00,469.00
             92.00,469.00 129.00,464.83 129.00,464.83
             129.00,464.83 198.00,457.83 198.00,457.83
             198.00,457.83 306.00,446.83 306.00,446.83
             306.00,446.83 355.00,442.00 355.00,442.00
             355.00,442.00 338.12,378.00 338.12,378.00
             338.12,378.00 311.12,275.00 311.12,275.00
             311.12,275.00 294.58,212.00 294.58,212.00
             294.58,212.00 283.00,167.00 283.00,167.00
             289.91,168.41 301.49,176.85 308.00,180.80
             308.00,180.80 360.00,212.95 360.00,212.95
             360.00,212.95 463.00,276.42 463.00,276.42
             463.00,276.42 527.00,316.00 527.00,316.00
             527.00,316.00 549.69,253.00 549.69,253.00
             549.69,253.00 585.69,153.00 585.69,153.00
             585.69,153.00 608.05,91.00 608.05,91.00
             608.05,91.00 621.00,54.00 621.00,54.00 Z" />
</svg>
